<svg xmlns="http://www.w3.org/2000/svg" viewBox="0 0 1536 1024" width="1536" height="1024"><rect width="1536" height="1024" fill="#141e30" /><rect y="0" width="1536" height="128" fill="#243b55" opacity="0.25" /><rect y="128" width="1536" height="128" fill="#243b55" opacity="0.37" /><rect y="256" width="1536" height="128" fill="#243b55" opacity="0.49" /><circle cx="1174" cy="283" r="154" fill="#e55039" /><circle cx="1174" cy="283" r="128" fill="#f8c291" /><rect x="1021" y="295" width="306" height="10" fill="#141e30" /><rect x="1027" y="321" width="294" height="10" fill="#141e30" /><rect x="1037" y="347" width="274" height="10" fill="#141e30" /><polygon points="-40,1024 -40,691 100,691 100,489 296,489 296,551 440,551 440,561 654,561 654,719 884,719 884,469 1114,469 1114,467 1254,467 1254,581 1466,581 1466,607 1662,607 1616,1024" fill="#3c6382" /><polygon points="-40,1024 -40,613 62,613 62,427 250,427 250,589 382,589 382,475 474,475 474,389 574,389 574,435 732,435 732,597 870,597 870,655 1004,655 1004,569 1142,569 1142,367 1316,367 1316,461 1470,461 1470,619 1666,619 1616,1024" fill="#82ccdd" /><polygon points="-40,1024 -40,429 152,429 152,547 274,547 274,301 422,301 422,459 658,459 658,449 760,449 760,479 992,479 992,277 1206,277 1206,327 1444,327 1444,469 1558,469 1558,391 1690,391 1616,1024" fill="#243b55" /><rect y="1016" width="1536" height="3" fill="#f8c291" opacity="0.35" /><rect y="992" width="1536" height="3" fill="#f8c291" opacity="0.35" /><rect y="952" width="1536" height="3" fill="#f8c291" opacity="0.35" /><rect y="896" width="1536" height="3" fill="#f8c291" opacity="0.35" /><rect y="824" width="1536" height="3" fill="#f8c291" opacity="0.35" /><rect y="736" width="1536" height="3" fill="#f8c291" opacity="0.35" /><rect y="0" width="1536" height="1" fill="#000" opacity="0.10" /><rect y="8" width="1536" height="1" fill="#000" opacity="0.10" /><rect y="16" width="1536" height="1" fill="#000" opacity="0.10" /><rect y="24" width="1536" height="1" fill="#000" opacity="0.10" /><rect y="32" width="1536" height="1" fill="#000" opacity="0.10" /><rect y="40" width="1536" height="1" fill="#000" opacity="0.10" /><rect y="48" width="1536" height="1" fill="#000" opacity="0.10" /><rect y="56" width="1536" height="1" fill="#000" opacity="0.10" /><rect y="64" width="1536" height="1" fill="#000" opacity="0.10" /><rect y="72" width="1536" height="1" fill="#000" opacity="0.10" /><rect y="80" width="1536" height="1" fill="#000" opacity="0.10" /><rect y="88" width="1536" height="1" fill="#000" opacity="0.10" /><rect y="96" width="1536" height="1" fill="#000" opacity="0.10" /><rect y="104" width="1536" height="1" fill="#000" opacity="0.10" /><rect y="112" width="1536" height="1" fill="#000" opacity="0.10" /><rect y="120" width="1536" height="1" fill="#000" opacity="0.10" /><rect y="128" width="1536" height="1" fill="#000" opacity="0.10" /><rect y="136" width="1536" height="1" fill="#000" opacity="0.10" /><rect y="144" width="1536" height="1" fill="#000" opacity="0.10" /><rect y="152" width="1536" height="1" fill="#000" opacity="0.10" /><rect y="160" width="1536" height="1" fill="#000" opacity="0.10" /><rect y="168" width="1536" height="1" fill="#000" opacity="0.10" /><rect y="176" width="1536" height="1" fill="#000" opacity="0.10" /><rect y="184" width="1536" height="1" fill="#000" opacity="0.10" /><rect y="192" width="1536" height="1" fill="#000" opacity="0.10" /><rect y="200" width="1536" height="1" fill="#000" opacity="0.10" /><rect y="208" width="1536" height="1" fill="#000" opacity="0.10" /><rect y="216" width="1536" height="1" fill="#000" opacity="0.10" /><rect y="224" width="1536" height="1" fill="#000" opacity="0.10" /><rect y="232" width="1536" height="1" fill="#000" opacity="0.10" /><rect y="240" width="1536" height="1" fill="#000" opacity="0.10" /><rect y="248" width="1536" height="1" fill="#000" opacity="0.10" /><rect y="256" width="1536" height="1" fill="#000" opacity="0.10" /><rect y="264" width="1536" height="1" fill="#000" opacity="0.10" /><rect y="272" width="1536" height="1" fill="#000" opacity="0.10" /><rect y="280" width="1536" height="1" fill="#000" opacity="0.10" /><rect y="288" width="1536" height="1" fill="#000" opacity="0.10" /><rect y="296" width="1536" height="1" fill="#000" opacity="0.10" /><rect y="304" width="1536" height="1" fill="#000" opacity="0.10" /><rect y="312" width="1536" height="1" fill="#000" opacity="0.10" /><rect y="320" width="1536" height="1" fill="#000" opacity="0.10" /><rect y="328" width="1536" height="1" fill="#000" opacity="0.10" /><rect y="336" width="1536" height="1" fill="#000" opacity="0.10" /><rect y="344" width="1536" height="1" fill="#000" opacity="0.10" /><rect y="352" width="1536" height="1" fill="#000" opacity="0.10" /><rect y="360" width="1536" height="1" fill="#000" opacity="0.10" /><rect y="368" width="1536" height="1" fill="#000" opacity="0.10" /><rect y="376" width="1536" height="1" fill="#000" opacity="0.10" /><rect y="384" width="1536" height="1" fill="#000" opacity="0.10" /><rect y="392" width="1536" height="1" fill="#000" opacity="0.10" /><rect y="400" width="1536" height="1" fill="#000" opacity="0.10" /><rect y="408" width="1536" height="1" fill="#000" opacity="0.10" /><rect y="416" width="1536" height="1" fill="#000" opacity="0.10" /><rect y="424" width="1536" height="1" fill="#000" opacity="0.10" /><rect y="432" width="1536" height="1" fill="#000" opacity="0.10" /><rect y="440" width="1536" height="1" fill="#000" opacity="0.10" /><rect y="448" width="1536" height="1" fill="#000" opacity="0.10" /><rect y="456" width="1536" height="1" fill="#000" opacity="0.10" /><rect y="464" width="1536" height="1" fill="#000" opacity="0.10" /><rect y="472" width="1536" height="1" fill="#000" opacity="0.10" /><rect y="480" width="1536" height="1" fill="#000" opacity="0.10" /><rect y="488" width="1536" height="1" fill="#000" opacity="0.10" /><rect y="496" width="1536" height="1" fill="#000" opacity="0.10" /><rect y="504" width="1536" height="1" fill="#000" opacity="0.10" /><rect y="512" width="1536" height="1" fill="#000" opacity="0.10" /><rect y="520" width="1536" height="1" fill="#000" opacity="0.10" /><rect y="528" width="1536" height="1" fill="#000" opacity="0.10" /><rect y="536" width="1536" height="1" fill="#000" opacity="0.10" /><rect y="544" width="1536" height="1" fill="#000" opacity="0.10" /><rect y="552" width="1536" height="1" fill="#000" opacity="0.10" /><rect y="560" width="1536" height="1" fill="#000" opacity="0.10" /><rect y="568" width="1536" height="1" fill="#000" opacity="0.10" /><rect y="576" width="1536" height="1" fill="#000" opacity="0.10" /><rect y="584" width="1536" height="1" fill="#000" opacity="0.10" /><rect y="592" width="1536" height="1" fill="#000" opacity="0.10" /><rect y="600" width="1536" height="1" fill="#000" opacity="0.10" /><rect y="608" width="1536" height="1" fill="#000" opacity="0.10" /><rect y="616" width="1536" height="1" fill="#000" opacity="0.10" /><rect y="624" width="1536" height="1" fill="#000" opacity="0.10" /><rect y="632" width="1536" height="1" fill="#000" opacity="0.10" /><rect y="640" width="1536" height="1" fill="#000" opacity="0.10" /><rect y="648" width="1536" height="1" fill="#000" opacity="0.10" /><rect y="656" width="1536" height="1" fill="#000" opacity="0.10" /><rect y="664" width="1536" height="1" fill="#000" opacity="0.10" /><rect y="672" width="1536" height="1" fill="#000" opacity="0.10" /><rect y="680" width="1536" height="1" fill="#000" opacity="0.10" /><rect y="688" width="1536" height="1" fill="#000" opacity="0.10" /><rect y="696" width="1536" height="1" fill="#000" opacity="0.10" /><rect y="704" width="1536" height="1" fill="#000" opacity="0.10" /><rect y="712" width="1536" height="1" fill="#000" opacity="0.10" /><rect y="720" width="1536" height="1" fill="#000" opacity="0.10" /><rect y="728" width="1536" height="1" fill="#000" opacity="0.10" /><rect y="736" width="1536" height="1" fill="#000" opacity="0.10" /><rect y="744" width="1536" height="1" fill="#000" opacity="0.10" /><rect y="752" width="1536" height="1" fill="#000" opacity="0.10" /><rect y="760" width="1536" height="1" fill="#000" opacity="0.10" /><rect y="768" width="1536" height="1" fill="#000" opacity="0.10" /><rect y="776" width="1536" height="1" fill="#000" opacity="0.10" /><rect y="784" width="1536" height="1" fill="#000" opacity="0.10" /><rect y="792" width="1536" height="1" fill="#000" opacity="0.10" /><rect y="800" width="1536" height="1" fill="#000" opacity="0.10" /><rect y="808" width="1536" height="1" fill="#000" opacity="0.10" /><rect y="816" width="1536" height="1" fill="#000" opacity="0.10" /><rect y="824" width="1536" height="1" fill="#000" opacity="0.10" /><rect y="832" width="1536" height="1" fill="#000" opacity="0.10" /><rect y="840" width="1536" height="1" fill="#000" opacity="0.10" /><rect y="848" width="1536" height="1" fill="#000" opacity="0.10" /><rect y="856" width="1536" height="1" fill="#000" opacity="0.10" /><rect y="864" width="1536" height="1" fill="#000" opacity="0.10" /><rect y="872" width="1536" height="1" fill="#000" opacity="0.10" /><rect y="880" width="1536" height="1" fill="#000" opacity="0.10" /><rect y="888" width="1536" height="1" fill="#000" opacity="0.10" /><rect y="896" width="1536" height="1" fill="#000" opacity="0.10" /><rect y="904" width="1536" height="1" fill="#000" opacity="0.10" /><rect y="912" width="1536" height="1" fill="#000" opacity="0.10" /><rect y="920" width="1536" height="1" fill="#000" opacity="0.10" /><rect y="928" width="1536" height="1" fill="#000" opacity="0.10" /><rect y="936" width="1536" height="1" fill="#000" opacity="0.10" /><rect y="944" width="1536" height="1" fill="#000" opacity="0.10" /><rect y="952" width="1536" height="1" fill="#000" opacity="0.10" /><rect y="960" width="1536" height="1" fill="#000" opacity="0.10" /><rect y="968" width="1536" height="1" fill="#000" opacity="0.10" /><rect y="976" width="1536" height="1" fill="#000" opacity="0.10" /><rect y="984" width="1536" height="1" fill="#000" opacity="0.10" /><rect y="992" width="1536" height="1" fill="#000" opacity="0.10" /><rect y="1000" width="1536" height="1" fill="#000" opacity="0.10" /><rect y="1008" width="1536" height="1" fill="#000" opacity="0.10" /><rect y="1016" width="1536" height="1" fill="#000" opacity="0.10" /><rect width="1536" height="26" fill="#000" opacity="0.35" /><rect y="998" width="1536" height="26" fill="#000" opacity="0.35" /></svg>